<svg xmlns="http://www.w3.org/2000/svg" version="1.1" xmlns:xlink="http://www.w3.org/1999/xlink" xmlns:svgjs="http://svgjs.dev/svgjs" width="1440" height="560" preserveAspectRatio="none" viewBox="0 0 1440 560"><g mask="url(&quot;#SvgjsMask1000&quot;)" fill="none"><rect width="1440" height="560" x="0" y="0" fill="#0e2a47"></rect><path d="M-72.95 340.72L-72.95 340.72" stroke="#132e65" stroke-width="1.5"></path><path d="M-72.95 340.72L37.9 379.02" stroke="#132e65" stroke-width="1.5"></path><path d="M-72.95 340.72L-102.33 512.61" stroke="#132e65" stroke-width="1.5"></path><path d="M-102.33 512.61L-102.33 512.61" stroke="#132e65" stroke-width="1.5"></path><path d="M-102.33 512.61L-60.15 649.27" stroke="#132e65" stroke-width="1.5"></path><path d="M-102.33 512.61L90.21 528.87" stroke="#132e65" stroke-width="1.5"></path><path d="M-102.33 512.61L37.9 379.02" stroke="#132e65" stroke-width="1.5"></path><path d="M-102.33 512.61L76.94 690.7" stroke="#132e65" stroke-width="1.5"></path><path d="M-60.15 649.27L-60.15 649.27" stroke="#132e65" stroke-width="1.5"></path><path d="M-60.15 649.27L76.94 690.7" stroke="#132e65" stroke-width="1.5"></path><path d="M-60.15 649.27L90.21 528.87" stroke="#132e65" stroke-width="1.5"></path><path d="M-60.15 649.27L220.63 644.73" stroke="#132e65" stroke-width="1.5"></path><path d="M-60.15 649.27L37.9 379.02" stroke="#132e65" stroke-width="1.5"></path><path d="M37.9 379.02L37.9 379.02" stroke="#132e65" stroke-width="1.5"></path><path d="M37.9 379.02L90.21 528.87" stroke="#132e65" stroke-width="1.5"></path><path d="M37.9 379.02L206.09 370.38" stroke="#132e65" stroke-width="1.5"></path><path d="M37.9 379.02L188.57 500.86" stroke="#132e65" stroke-width="1.5"></path><path d="M90.21 528.87L90.21 528.87" stroke="#132e65" stroke-width="1.5"></path><path d="M90.21 528.87L188.57 500.86" stroke="#132e65" stroke-width="1.5"></path><path d="M76.94 690.7L76.94 690.7" stroke="#132e65" stroke-width="1.5"></path><path d="M76.94 690.7L220.63 644.73" stroke="#132e65" stroke-width="1.5"></path><path d="M206.09 370.38L206.09 370.38" stroke="#132e65" stroke-width="1.5"></path><path d="M206.09 370.38L188.57 500.86" stroke="#132e65" stroke-width="1.5"></path><path d="M206.09 370.38L341.06 407" stroke="#132e65" stroke-width="1.5"></path><path d="M188.57 500.86L188.57 500.86" stroke="#132e65" stroke-width="1.5"></path><path d="M188.57 500.86L220.63 644.73" stroke="#132e65" stroke-width="1.5"></path><path d="M220.63 644.73L220.63 644.73" stroke="#132e65" stroke-width="1.5"></path><path d="M220.63 644.73L378.86 643.2" stroke="#132e65" stroke-width="1.5"></path><path d="M220.63 644.73L90.21 528.87" stroke="#132e65" stroke-width="1.5"></path><path d="M341.06 407L341.06 407" stroke="#132e65" stroke-width="1.5"></path><path d="M341.06 407L370.28 509.21" stroke="#132e65" stroke-width="1.5"></path><path d="M341.06 407L188.57 500.86" stroke="#132e65" stroke-width="1.5"></path><path d="M370.28 509.21L370.28 509.21" stroke="#132e65" stroke-width="1.5"></path><path d="M370.28 509.21L378.86 643.2" stroke="#132e65" stroke-width="1.5"></path><path d="M378.86 643.2L378.86 643.2" stroke="#132e65" stroke-width="1.5"></path><path d="M378.86 643.2L495.66 701.72" stroke="#132e65" stroke-width="1.5"></path><path d="M549.49 380.49L549.49 380.49" stroke="#132e65" stroke-width="1.5"></path><path d="M549.49 380.49L548.97 521.58" stroke="#132e65" stroke-width="1.5"></path><path d="M549.49 380.49L341.06 407" stroke="#132e65" stroke-width="1.5"></path><path d="M549.49 380.49L370.28 509.21" stroke="#132e65" stroke-width="1.5"></path><path d="M548.97 521.58L548.97 521.58" stroke="#132e65" stroke-width="1.5"></path><path d="M548.97 521.58L370.28 509.21" stroke="#132e65" stroke-width="1.5"></path><path d="M548.97 521.58L495.66 701.72" stroke="#132e65" stroke-width="1.5"></path><path d="M495.66 701.72L495.66 701.72" stroke="#132e65" stroke-width="1.5"></path><path d="M495.66 701.72L685.73 670.27" stroke="#132e65" stroke-width="1.5"></path><path d="M685.73 670.27L685.73 670.27" stroke="#132e65" stroke-width="1.5"></path><path d="M685.73 670.27L833.84 677.04" stroke="#132e65" stroke-width="1.5"></path><path d="M685.73 670.27L548.97 521.58" stroke="#132e65" stroke-width="1.5"></path><path d="M685.73 670.27L808.45 500.89" stroke="#132e65" stroke-width="1.5"></path><path d="M685.73 670.27L974.18 648.62" stroke="#132e65" stroke-width="1.5"></path><path d="M842.53 109.73L842.53 109.73" stroke="#132e65" stroke-width="1.5"></path><path d="M842.53 109.73L807.22 224.72" stroke="#132e65" stroke-width="1.5"></path><path d="M842.53 109.73L971.91 218.72" stroke="#132e65" stroke-width="1.5"></path><path d="M807.22 224.72L807.22 224.72" stroke="#132e65" stroke-width="1.5"></path><path d="M807.22 224.72L836.97 356.25" stroke="#132e65" stroke-width="1.5"></path><path d="M807.22 224.72L971.91 218.72" stroke="#132e65" stroke-width="1.5"></path><path d="M807.22 224.72L982.55 359.55" stroke="#132e65" stroke-width="1.5"></path><path d="M836.97 356.25L836.97 356.25" stroke="#132e65" stroke-width="1.5"></path><path d="M836.97 356.25L982.55 359.55" stroke="#132e65" stroke-width="1.5"></path><path d="M808.45 500.89L808.45 500.89" stroke="#132e65" stroke-width="1.5"></path><path d="M808.45 500.89L836.97 356.25" stroke="#132e65" stroke-width="1.5"></path><path d="M808.45 500.89L954.89 520.59" stroke="#132e65" stroke-width="1.5"></path><path d="M808.45 500.89L833.84 677.04" stroke="#132e65" stroke-width="1.5"></path><path d="M808.45 500.89L974.18 648.62" stroke="#132e65" stroke-width="1.5"></path><path d="M833.84 677.04L833.84 677.04" stroke="#132e65" stroke-width="1.5"></path><path d="M833.84 677.04L974.18 648.62" stroke="#132e65" stroke-width="1.5"></path><path d="M833.84 677.04L954.89 520.59" stroke="#132e65" stroke-width="1.5"></path><path d="M833.84 677.04L1142.65 672.43" stroke="#132e65" stroke-width="1.5"></path><path d="M833.84 677.04L1130.75 561.43" stroke="#132e65" stroke-width="1.5"></path><path d="M956.57 -106.67L956.57 -106.67" stroke="#132e65" stroke-width="1.5"></path><path d="M956.57 -106.67L1108.72 -48.35" stroke="#132e65" stroke-width="1.5"></path><path d="M956.57 -106.67L1012.24 93.82" stroke="#132e65" stroke-width="1.5"></path><path d="M956.57 -106.67L1123.43 66.18" stroke="#132e65" stroke-width="1.5"></path><path d="M956.57 -106.67L842.53 109.73" stroke="#132e65" stroke-width="1.5"></path><path d="M956.57 -106.67L971.91 218.72" stroke="#132e65" stroke-width="1.5"></path><path d="M956.57 -106.67L1299.83 -96.01" stroke="#132e65" stroke-width="1.5"></path><path d="M1012.24 93.82L1012.24 93.82" stroke="#132e65" stroke-width="1.5"></path><path d="M1012.24 93.82L1123.43 66.18" stroke="#132e65" stroke-width="1.5"></path><path d="M1012.24 93.82L971.91 218.72" stroke="#132e65" stroke-width="1.5"></path><path d="M1012.24 93.82L1105.76 219.52" stroke="#132e65" stroke-width="1.5"></path><path d="M1012.24 93.82L842.53 109.73" stroke="#132e65" stroke-width="1.5"></path><path d="M971.91 218.72L971.91 218.72" stroke="#132e65" stroke-width="1.5"></path><path d="M982.55 359.55L982.55 359.55" stroke="#132e65" stroke-width="1.5"></path><path d="M982.55 359.55L1116.75 368.64" stroke="#132e65" stroke-width="1.5"></path><path d="M982.55 359.55L971.91 218.72" stroke="#132e65" stroke-width="1.5"></path><path d="M982.55 359.55L954.89 520.59" stroke="#132e65" stroke-width="1.5"></path><path d="M982.55 359.55L1105.76 219.52" stroke="#132e65" stroke-width="1.5"></path><path d="M954.89 520.59L954.89 520.59" stroke="#132e65" stroke-width="1.5"></path><path d="M954.89 520.59L974.18 648.62" stroke="#132e65" stroke-width="1.5"></path><path d="M974.18 648.62L974.18 648.62" stroke="#132e65" stroke-width="1.5"></path><path d="M974.18 648.62L1142.65 672.43" stroke="#132e65" stroke-width="1.5"></path><path d="M1108.72 -48.35L1108.72 -48.35" stroke="#132e65" stroke-width="1.5"></path><path d="M1108.72 -48.35L1123.43 66.18" stroke="#132e65" stroke-width="1.5"></path><path d="M1108.72 -48.35L1012.24 93.82" stroke="#132e65" stroke-width="1.5"></path><path d="M1108.72 -48.35L1299.83 -96.01" stroke="#132e65" stroke-width="1.5"></path><path d="M1108.72 -48.35L1272.35 103.8" stroke="#132e65" stroke-width="1.5"></path><path d="M1123.43 66.18L1123.43 66.18" stroke="#132e65" stroke-width="1.5"></path><path d="M1123.43 66.18L1272.35 103.8" stroke="#132e65" stroke-width="1.5"></path><path d="M1123.43 66.18L1105.76 219.52" stroke="#132e65" stroke-width="1.5"></path><path d="M1105.76 219.52L1105.76 219.52" stroke="#132e65" stroke-width="1.5"></path><path d="M1105.76 219.52L971.91 218.72" stroke="#132e65" stroke-width="1.5"></path><path d="M1105.76 219.52L1247.73 219.01" stroke="#132e65" stroke-width="1.5"></path><path d="M1105.76 219.52L1116.75 368.64" stroke="#132e65" stroke-width="1.5"></path><path d="M1116.75 368.64L1116.75 368.64" stroke="#132e65" stroke-width="1.5"></path><path d="M1116.75 368.64L1294.92 347.46" stroke="#132e65" stroke-width="1.5"></path><path d="M1130.75 561.43L1130.75 561.43" stroke="#132e65" stroke-width="1.5"></path><path d="M1130.75 561.43L1142.65 672.43" stroke="#132e65" stroke-width="1.5"></path><path d="M1130.75 561.43L1288.18 532.18" stroke="#132e65" stroke-width="1.5"></path><path d="M1130.75 561.43L974.18 648.62" stroke="#132e65" stroke-width="1.5"></path><path d="M1130.75 561.43L954.89 520.59" stroke="#132e65" stroke-width="1.5"></path><path d="M1130.75 561.43L1116.75 368.64" stroke="#132e65" stroke-width="1.5"></path><path d="M1142.65 672.43L1142.65 672.43" stroke="#132e65" stroke-width="1.5"></path><path d="M1142.65 672.43L1284.91 695.46" stroke="#132e65" stroke-width="1.5"></path><path d="M1142.65 672.43L1288.18 532.18" stroke="#132e65" stroke-width="1.5"></path><path d="M1142.65 672.43L954.89 520.59" stroke="#132e65" stroke-width="1.5"></path><path d="M1142.65 672.43L1399.38 672.83" stroke="#132e65" stroke-width="1.5"></path><path d="M1299.83 -96.01L1299.83 -96.01" stroke="#132e65" stroke-width="1.5"></path><path d="M1299.83 -96.01L1440.15 -38.57" stroke="#132e65" stroke-width="1.5"></path><path d="M1299.83 -96.01L1272.35 103.8" stroke="#132e65" stroke-width="1.5"></path><path d="M1299.83 -96.01L1123.43 66.18" stroke="#132e65" stroke-width="1.5"></path><path d="M1299.83 -96.01L1444.79 105.31" stroke="#132e65" stroke-width="1.5"></path><path d="M1272.35 103.8L1272.35 103.8" stroke="#132e65" stroke-width="1.5"></path><path d="M1272.35 103.8L1247.73 219.01" stroke="#132e65" stroke-width="1.5"></path><path d="M1272.35 103.8L1403.73 190.17" stroke="#132e65" stroke-width="1.5"></path><path d="M1272.35 103.8L1444.79 105.31" stroke="#132e65" stroke-width="1.5"></path><path d="M1247.73 219.01L1247.73 219.01" stroke="#132e65" stroke-width="1.5"></path><path d="M1247.73 219.01L1294.92 347.46" stroke="#132e65" stroke-width="1.5"></path><path d="M1247.73 219.01L1403.73 190.17" stroke="#132e65" stroke-width="1.5"></path><path d="M1294.92 347.46L1294.92 347.46" stroke="#132e65" stroke-width="1.5"></path><path d="M1294.92 347.46L1446.13 357.96" stroke="#132e65" stroke-width="1.5"></path><path d="M1294.92 347.46L1288.18 532.18" stroke="#132e65" stroke-width="1.5"></path><path d="M1288.18 532.18L1288.18 532.18" stroke="#132e65" stroke-width="1.5"></path><path d="M1288.18 532.18L1396.78 534.72" stroke="#132e65" stroke-width="1.5"></path><path d="M1288.18 532.18L1284.91 695.46" stroke="#132e65" stroke-width="1.5"></path><path d="M1288.18 532.18L1399.38 672.83" stroke="#132e65" stroke-width="1.5"></path><path d="M1284.91 695.46L1284.91 695.46" stroke="#132e65" stroke-width="1.5"></path><path d="M1284.91 695.46L1399.38 672.83" stroke="#132e65" stroke-width="1.5"></path><path d="M1440.15 -38.57L1440.15 -38.57" stroke="#132e65" stroke-width="1.5"></path><path d="M1440.15 -38.57L1444.79 105.31" stroke="#132e65" stroke-width="1.5"></path><path d="M1444.79 105.31L1444.79 105.31" stroke="#132e65" stroke-width="1.5"></path><path d="M1444.79 105.31L1403.73 190.17" stroke="#132e65" stroke-width="1.5"></path><path d="M1444.79 105.31L1549.3 189.75" stroke="#132e65" stroke-width="1.5"></path><path d="M1403.73 190.17L1403.73 190.17" stroke="#132e65" stroke-width="1.5"></path><path d="M1403.73 190.17L1549.3 189.75" stroke="#132e65" stroke-width="1.5"></path><path d="M1446.13 357.96L1446.13 357.96" stroke="#132e65" stroke-width="1.5"></path><path d="M1446.13 357.96L1587.28 405.05" stroke="#132e65" stroke-width="1.5"></path><path d="M1446.13 357.96L1403.73 190.17" stroke="#132e65" stroke-width="1.5"></path><path d="M1446.13 357.96L1396.78 534.72" stroke="#132e65" stroke-width="1.5"></path><path d="M1396.78 534.72L1396.78 534.72" stroke="#132e65" stroke-width="1.5"></path><path d="M1396.78 534.72L1399.38 672.83" stroke="#132e65" stroke-width="1.5"></path><path d="M1396.78 534.72L1560.07 520.52" stroke="#132e65" stroke-width="1.5"></path><path d="M1399.38 672.83L1399.38 672.83" stroke="#132e65" stroke-width="1.5"></path><path d="M1399.38 672.83L1561.18 639.9" stroke="#132e65" stroke-width="1.5"></path><path d="M1399.38 672.83L1560.07 520.52" stroke="#132e65" stroke-width="1.5"></path><path d="M1601.51 77.33L1601.51 77.33" stroke="#132e65" stroke-width="1.5"></path><path d="M1601.51 77.33L1549.3 189.75" stroke="#132e65" stroke-width="1.5"></path><path d="M1601.51 77.33L1444.79 105.31" stroke="#132e65" stroke-width="1.5"></path><path d="M1549.3 189.75L1549.3 189.75" stroke="#132e65" stroke-width="1.5"></path><path d="M1549.3 189.75L1446.13 357.96" stroke="#132e65" stroke-width="1.5"></path><path d="M1549.3 189.75L1587.28 405.05" stroke="#132e65" stroke-width="1.5"></path><path d="M1587.28 405.05L1587.28 405.05" stroke="#132e65" stroke-width="1.5"></path><path d="M1587.28 405.05L1560.07 520.52" stroke="#132e65" stroke-width="1.5"></path><path d="M1560.07 520.52L1560.07 520.52" stroke="#132e65" stroke-width="1.5"></path><path d="M1560.07 520.52L1561.18 639.9" stroke="#132e65" stroke-width="1.5"></path><path d="M1561.18 639.9L1561.18 639.9" stroke="#132e65" stroke-width="1.5"></path><circle r="5" cx="-72.95" cy="340.72" fill="#132e65"></circle><circle r="5" cx="-102.33" cy="512.61" fill="#132e65"></circle><circle r="5" cx="-60.15" cy="649.27" fill="#132e65"></circle><circle r="5" cx="37.9" cy="379.02" fill="#132e65"></circle><circle r="5" cx="90.21" cy="528.87" fill="#132e65"></circle><circle r="5" cx="76.94" cy="690.7" fill="#132e65"></circle><circle r="5" cx="206.09" cy="370.38" fill="#132e65"></circle><circle r="5" cx="188.57" cy="500.86" fill="#132e65"></circle><circle r="5" cx="220.63" cy="644.73" fill="#132e65"></circle><circle r="5" cx="341.06" cy="407" fill="#132e65"></circle><circle r="5" cx="370.28" cy="509.21" fill="#132e65"></circle><circle r="5" cx="378.86" cy="643.2" fill="#132e65"></circle><circle r="5" cx="549.49" cy="380.49" fill="#132e65"></circle><circle r="5" cx="548.97" cy="521.58" fill="#132e65"></circle><circle r="5" cx="495.66" cy="701.72" fill="#132e65"></circle><circle r="5" cx="685.73" cy="670.27" fill="#132e65"></circle><circle r="5" cx="842.53" cy="109.73" fill="#132e65"></circle><circle r="5" cx="807.22" cy="224.72" fill="#132e65"></circle><circle r="5" cx="836.97" cy="356.25" fill="#132e65"></circle><circle r="5" cx="808.45" cy="500.89" fill="#132e65"></circle><circle r="5" cx="833.84" cy="677.04" fill="#132e65"></circle><circle r="5" cx="956.57" cy="-106.67" fill="#132e65"></circle><circle r="5" cx="1012.24" cy="93.82" fill="#132e65"></circle><circle r="5" cx="971.91" cy="218.72" fill="#132e65"></circle><circle r="5" cx="982.55" cy="359.55" fill="#132e65"></circle><circle r="5" cx="954.89" cy="520.59" fill="#132e65"></circle><circle r="5" cx="974.18" cy="648.62" fill="#132e65"></circle><circle r="5" cx="1108.72" cy="-48.35" fill="#132e65"></circle><circle r="5" cx="1123.43" cy="66.18" fill="#132e65"></circle><circle r="5" cx="1105.76" cy="219.52" fill="#132e65"></circle><circle r="5" cx="1116.75" cy="368.64" fill="#132e65"></circle><circle r="5" cx="1130.75" cy="561.43" fill="#132e65"></circle><circle r="5" cx="1142.65" cy="672.43" fill="#132e65"></circle><circle r="5" cx="1299.83" cy="-96.01" fill="#132e65"></circle><circle r="5" cx="1272.35" cy="103.8" fill="#132e65"></circle><circle r="5" cx="1247.73" cy="219.01" fill="#132e65"></circle><circle r="5" cx="1294.92" cy="347.46" fill="#132e65"></circle><circle r="5" cx="1288.18" cy="532.18" fill="#132e65"></circle><circle r="5" cx="1284.91" cy="695.46" fill="#132e65"></circle><circle r="5" cx="1440.15" cy="-38.57" fill="#132e65"></circle><circle r="5" cx="1444.79" cy="105.31" fill="#132e65"></circle><circle r="5" cx="1403.73" cy="190.17" fill="#132e65"></circle><circle r="5" cx="1446.13" cy="357.96" fill="#132e65"></circle><circle r="5" cx="1396.78" cy="534.72" fill="#132e65"></circle><circle r="5" cx="1399.38" cy="672.83" fill="#132e65"></circle><circle r="5" cx="1601.51" cy="77.33" fill="#132e65"></circle><circle r="5" cx="1549.3" cy="189.75" fill="#132e65"></circle><circle r="5" cx="1587.28" cy="405.05" fill="#132e65"></circle><circle r="5" cx="1560.07" cy="520.52" fill="#132e65"></circle><circle r="5" cx="1561.18" cy="639.9" fill="#132e65"></circle><path d="M667.69 504.73L667.69 504.73" stroke="hsl(228.5, 77.2%, 51.5%)" stroke-width="1.5"></path><path d="M667.69 504.73L816.34 500.5" stroke="hsl(228.5, 77.2%, 51.5%)" stroke-width="1.5"></path><path d="M667.69 504.73L683.17 653.41" stroke="hsl(228.5, 77.2%, 51.5%)" stroke-width="1.5"></path><path d="M667.69 504.73L791.22 661.9" stroke="hsl(228.5, 77.2%, 51.5%)" stroke-width="1.5"></path><path d="M667.69 504.73L838.47 353.51" stroke="hsl(228.5, 77.2%, 51.5%)" stroke-width="1.5"></path><path d="M667.69 504.73L497.96 694.72" stroke="hsl(228.5, 77.2%, 51.5%)" stroke-width="1.5"></path><path d="M683.17 653.41L683.17 653.41" stroke="hsl(228.5, 77.2%, 51.5%)" stroke-width="1.5"></path><path d="M683.17 653.41L791.22 661.9" stroke="hsl(228.5, 77.2%, 51.5%)" stroke-width="1.5"></path><path d="M683.17 653.41L497.96 694.72" stroke="hsl(228.5, 77.2%, 51.5%)" stroke-width="1.5"></path><path d="M816.34 500.5L816.34 500.5" stroke="hsl(228.5, 77.2%, 51.5%)" stroke-width="1.5"></path><path d="M816.34 500.5L838.47 353.51" stroke="hsl(228.5, 77.2%, 51.5%)" stroke-width="1.5"></path><path d="M816.34 500.5L791.22 661.9" stroke="hsl(228.5, 77.2%, 51.5%)" stroke-width="1.5"></path><path d="M1153.56 232.48L1153.56 232.48" stroke="hsl(228.5, 77.2%, 51.5%)" stroke-width="1.5"></path><path d="M1153.56 232.48L1113.89 343.99" stroke="hsl(228.5, 77.2%, 51.5%)" stroke-width="1.5"></path><path d="M1153.56 232.48L1149.32 100.65" stroke="hsl(228.5, 77.2%, 51.5%)" stroke-width="1.5"></path><path d="M1153.56 232.48L1304.81 253.89" stroke="hsl(228.5, 77.2%, 51.5%)" stroke-width="1.5"></path><path d="M1153.56 232.48L1271.11 408.49" stroke="hsl(228.5, 77.2%, 51.5%)" stroke-width="1.5"></path><path d="M1283.73 -75L1283.73 -75" stroke="hsl(228.5, 77.2%, 51.5%)" stroke-width="1.5"></path><path d="M1283.73 -75L1274.59 44.17" stroke="hsl(228.5, 77.2%, 51.5%)" stroke-width="1.5"></path><path d="M1283.73 -75L1424.33 -42.63" stroke="hsl(228.5, 77.2%, 51.5%)" stroke-width="1.5"></path><path d="M1274.59 44.17L1274.59 44.17" stroke="hsl(228.5, 77.2%, 51.5%)" stroke-width="1.5"></path><path d="M1274.59 44.17L1149.32 100.65" stroke="hsl(228.5, 77.2%, 51.5%)" stroke-width="1.5"></path><path d="M1274.59 44.17L1423.47 110.89" stroke="hsl(228.5, 77.2%, 51.5%)" stroke-width="1.5"></path><path d="M1461.4 241.74L1461.4 241.74" stroke="hsl(228.5, 77.2%, 51.5%)" stroke-width="1.5"></path><path d="M1461.4 241.74L1549.3 206.8" stroke="hsl(228.5, 77.2%, 51.5%)" stroke-width="1.5"></path><path d="M1461.4 241.74L1399.01 342.72" stroke="hsl(228.5, 77.2%, 51.5%)" stroke-width="1.5"></path><path d="M1608.19 -65.27L1608.19 -65.27" stroke="hsl(228.5, 77.2%, 51.5%)" stroke-width="1.5"></path><path d="M1608.19 -65.27L1586.89 53.99" stroke="hsl(228.5, 77.2%, 51.5%)" stroke-width="1.5"></path><path d="M1608.19 -65.27L1424.33 -42.63" stroke="hsl(228.5, 77.2%, 51.5%)" stroke-width="1.5"></path><path d="M1608.19 -65.27L1423.47 110.89" stroke="hsl(228.5, 77.2%, 51.5%)" stroke-width="1.5"></path><path d="M1608.19 -65.27L1549.3 206.8" stroke="hsl(228.5, 77.2%, 51.5%)" stroke-width="1.5"></path><path d="M1608.19 -65.27L1283.73 -75" stroke="hsl(228.5, 77.2%, 51.5%)" stroke-width="1.5"></path><path d="M1608.19 -65.27L1461.4 241.74" stroke="hsl(228.5, 77.2%, 51.5%)" stroke-width="1.5"></path><path d="M-50.99 550.43L-50.99 550.43" stroke="hsl(228.5, 77.2%, 51.5%)" stroke-width="1.5"></path><path d="M-50.99 550.43L-48.53 683.65" stroke="hsl(228.5, 77.2%, 51.5%)" stroke-width="1.5"></path><path d="M-50.99 550.43L46.05 651.02" stroke="hsl(228.5, 77.2%, 51.5%)" stroke-width="1.5"></path><path d="M-50.99 550.43L101.25 527.97" stroke="hsl(228.5, 77.2%, 51.5%)" stroke-width="1.5"></path><path d="M-50.99 550.43L213.48 527.94" stroke="hsl(228.5, 77.2%, 51.5%)" stroke-width="1.5"></path><path d="M-50.99 550.43L233.36 700.66" stroke="hsl(228.5, 77.2%, 51.5%)" stroke-width="1.5"></path><path d="M-48.53 683.65L-48.53 683.65" stroke="hsl(228.5, 77.2%, 51.5%)" stroke-width="1.5"></path><path d="M-48.53 683.65L46.05 651.02" stroke="hsl(228.5, 77.2%, 51.5%)" stroke-width="1.5"></path><path d="M101.25 527.97L101.25 527.97" stroke="hsl(228.5, 77.2%, 51.5%)" stroke-width="1.5"></path><path d="M101.25 527.97L213.48 527.94" stroke="hsl(228.5, 77.2%, 51.5%)" stroke-width="1.5"></path><path d="M46.05 651.02L46.05 651.02" stroke="hsl(228.5, 77.2%, 51.5%)" stroke-width="1.5"></path><path d="M46.05 651.02L101.25 527.97" stroke="hsl(228.5, 77.2%, 51.5%)" stroke-width="1.5"></path><path d="M46.05 651.02L233.36 700.66" stroke="hsl(228.5, 77.2%, 51.5%)" stroke-width="1.5"></path><path d="M46.05 651.02L213.48 527.94" stroke="hsl(228.5, 77.2%, 51.5%)" stroke-width="1.5"></path><path d="M213.48 527.94L213.48 527.94" stroke="hsl(228.5, 77.2%, 51.5%)" stroke-width="1.5"></path><path d="M213.48 527.94L375.22 522.85" stroke="hsl(228.5, 77.2%, 51.5%)" stroke-width="1.5"></path><path d="M213.48 527.94L233.36 700.66" stroke="hsl(228.5, 77.2%, 51.5%)" stroke-width="1.5"></path><path d="M233.36 700.66L233.36 700.66" stroke="hsl(228.5, 77.2%, 51.5%)" stroke-width="1.5"></path><path d="M233.36 700.66L377.54 682.08" stroke="hsl(228.5, 77.2%, 51.5%)" stroke-width="1.5"></path><path d="M375.22 522.85L375.22 522.85" stroke="hsl(228.5, 77.2%, 51.5%)" stroke-width="1.5"></path><path d="M375.22 522.85L377.54 682.08" stroke="hsl(228.5, 77.2%, 51.5%)" stroke-width="1.5"></path><path d="M375.22 522.85L497.96 694.72" stroke="hsl(228.5, 77.2%, 51.5%)" stroke-width="1.5"></path><path d="M375.22 522.85L233.36 700.66" stroke="hsl(228.5, 77.2%, 51.5%)" stroke-width="1.5"></path><path d="M375.22 522.85L101.25 527.97" stroke="hsl(228.5, 77.2%, 51.5%)" stroke-width="1.5"></path><path d="M377.54 682.08L377.54 682.08" stroke="hsl(228.5, 77.2%, 51.5%)" stroke-width="1.5"></path><path d="M377.54 682.08L497.96 694.72" stroke="hsl(228.5, 77.2%, 51.5%)" stroke-width="1.5"></path><path d="M497.96 694.72L497.96 694.72" stroke="hsl(228.5, 77.2%, 51.5%)" stroke-width="1.5"></path><path d="M838.47 353.51L838.47 353.51" stroke="hsl(228.5, 77.2%, 51.5%)" stroke-width="1.5"></path><path d="M838.47 353.51L940.82 381.94" stroke="hsl(228.5, 77.2%, 51.5%)" stroke-width="1.5"></path><path d="M791.22 661.9L791.22 661.9" stroke="hsl(228.5, 77.2%, 51.5%)" stroke-width="1.5"></path><path d="M791.22 661.9L948.99 657.31" stroke="hsl(228.5, 77.2%, 51.5%)" stroke-width="1.5"></path><path d="M791.22 661.9L992.45 506.06" stroke="hsl(228.5, 77.2%, 51.5%)" stroke-width="1.5"></path><path d="M791.22 661.9L497.96 694.72" stroke="hsl(228.5, 77.2%, 51.5%)" stroke-width="1.5"></path><path d="M940.82 381.94L940.82 381.94" stroke="hsl(228.5, 77.2%, 51.5%)" stroke-width="1.5"></path><path d="M940.82 381.94L992.45 506.06" stroke="hsl(228.5, 77.2%, 51.5%)" stroke-width="1.5"></path><path d="M940.82 381.94L816.34 500.5" stroke="hsl(228.5, 77.2%, 51.5%)" stroke-width="1.5"></path><path d="M940.82 381.94L1113.89 343.99" stroke="hsl(228.5, 77.2%, 51.5%)" stroke-width="1.5"></path><path d="M992.45 506.06L992.45 506.06" stroke="hsl(228.5, 77.2%, 51.5%)" stroke-width="1.5"></path><path d="M992.45 506.06L948.99 657.31" stroke="hsl(228.5, 77.2%, 51.5%)" stroke-width="1.5"></path><path d="M948.99 657.31L948.99 657.31" stroke="hsl(228.5, 77.2%, 51.5%)" stroke-width="1.5"></path><path d="M948.99 657.31L1135.23 669.24" stroke="hsl(228.5, 77.2%, 51.5%)" stroke-width="1.5"></path><path d="M948.99 657.31L816.34 500.5" stroke="hsl(228.5, 77.2%, 51.5%)" stroke-width="1.5"></path><path d="M1149.32 100.65L1149.32 100.65" stroke="hsl(228.5, 77.2%, 51.5%)" stroke-width="1.5"></path><path d="M1149.32 100.65L1304.81 253.89" stroke="hsl(228.5, 77.2%, 51.5%)" stroke-width="1.5"></path><path d="M1149.32 100.65L1283.73 -75" stroke="hsl(228.5, 77.2%, 51.5%)" stroke-width="1.5"></path><path d="M1113.89 343.99L1113.89 343.99" stroke="hsl(228.5, 77.2%, 51.5%)" stroke-width="1.5"></path><path d="M1113.89 343.99L1271.11 408.49" stroke="hsl(228.5, 77.2%, 51.5%)" stroke-width="1.5"></path><path d="M1113.89 343.99L992.45 506.06" stroke="hsl(228.5, 77.2%, 51.5%)" stroke-width="1.5"></path><path d="M1135.23 669.24L1135.23 669.24" stroke="hsl(228.5, 77.2%, 51.5%)" stroke-width="1.5"></path><path d="M1135.23 669.24L1239.1 668.16" stroke="hsl(228.5, 77.2%, 51.5%)" stroke-width="1.5"></path><path d="M1135.23 669.24L1244.83 503.93" stroke="hsl(228.5, 77.2%, 51.5%)" stroke-width="1.5"></path><path d="M1304.81 253.89L1304.81 253.89" stroke="hsl(228.5, 77.2%, 51.5%)" stroke-width="1.5"></path><path d="M1304.81 253.89L1399.01 342.72" stroke="hsl(228.5, 77.2%, 51.5%)" stroke-width="1.5"></path><path d="M1304.81 253.89L1461.4 241.74" stroke="hsl(228.5, 77.2%, 51.5%)" stroke-width="1.5"></path><path d="M1304.81 253.89L1271.11 408.49" stroke="hsl(228.5, 77.2%, 51.5%)" stroke-width="1.5"></path><path d="M1304.81 253.89L1423.47 110.89" stroke="hsl(228.5, 77.2%, 51.5%)" stroke-width="1.5"></path><path d="M1271.11 408.49L1271.11 408.49" stroke="hsl(228.5, 77.2%, 51.5%)" stroke-width="1.5"></path><path d="M1271.11 408.49L1244.83 503.93" stroke="hsl(228.5, 77.2%, 51.5%)" stroke-width="1.5"></path><path d="M1271.11 408.49L1399.01 342.72" stroke="hsl(228.5, 77.2%, 51.5%)" stroke-width="1.5"></path><path d="M1244.83 503.93L1244.83 503.93" stroke="hsl(228.5, 77.2%, 51.5%)" stroke-width="1.5"></path><path d="M1244.83 503.93L1239.1 668.16" stroke="hsl(228.5, 77.2%, 51.5%)" stroke-width="1.5"></path><path d="M1239.1 668.16L1239.1 668.16" stroke="hsl(228.5, 77.2%, 51.5%)" stroke-width="1.5"></path><path d="M1239.1 668.16L1432.69 662.12" stroke="hsl(228.5, 77.2%, 51.5%)" stroke-width="1.5"></path><path d="M1239.1 668.16L1444.54 509.11" stroke="hsl(228.5, 77.2%, 51.5%)" stroke-width="1.5"></path><path d="M1239.1 668.16L1271.11 408.49" stroke="hsl(228.5, 77.2%, 51.5%)" stroke-width="1.5"></path><path d="M1239.1 668.16L948.99 657.31" stroke="hsl(228.5, 77.2%, 51.5%)" stroke-width="1.5"></path><path d="M1424.33 -42.63L1424.33 -42.63" stroke="hsl(228.5, 77.2%, 51.5%)" stroke-width="1.5"></path><path d="M1424.33 -42.63L1423.47 110.89" stroke="hsl(228.5, 77.2%, 51.5%)" stroke-width="1.5"></path><path d="M1424.33 -42.63L1274.59 44.17" stroke="hsl(228.5, 77.2%, 51.5%)" stroke-width="1.5"></path><path d="M1423.47 110.89L1423.47 110.89" stroke="hsl(228.5, 77.2%, 51.5%)" stroke-width="1.5"></path><path d="M1423.47 110.89L1461.4 241.74" stroke="hsl(228.5, 77.2%, 51.5%)" stroke-width="1.5"></path><path d="M1399.01 342.72L1399.01 342.72" stroke="hsl(228.5, 77.2%, 51.5%)" stroke-width="1.5"></path><path d="M1399.01 342.72L1444.54 509.11" stroke="hsl(228.5, 77.2%, 51.5%)" stroke-width="1.5"></path><path d="M1444.54 509.11L1444.54 509.11" stroke="hsl(228.5, 77.2%, 51.5%)" stroke-width="1.5"></path><path d="M1444.54 509.11L1432.69 662.12" stroke="hsl(228.5, 77.2%, 51.5%)" stroke-width="1.5"></path><path d="M1444.54 509.11L1576.71 406.19" stroke="hsl(228.5, 77.2%, 51.5%)" stroke-width="1.5"></path><path d="M1432.69 662.12L1432.69 662.12" stroke="hsl(228.5, 77.2%, 51.5%)" stroke-width="1.5"></path><path d="M1586.89 53.99L1586.89 53.99" stroke="hsl(228.5, 77.2%, 51.5%)" stroke-width="1.5"></path><path d="M1586.89 53.99L1549.3 206.8" stroke="hsl(228.5, 77.2%, 51.5%)" stroke-width="1.5"></path><path d="M1586.89 53.99L1423.47 110.89" stroke="hsl(228.5, 77.2%, 51.5%)" stroke-width="1.5"></path><path d="M1586.89 53.99L1424.33 -42.63" stroke="hsl(228.5, 77.2%, 51.5%)" stroke-width="1.5"></path><path d="M1586.89 53.99L1461.4 241.74" stroke="hsl(228.5, 77.2%, 51.5%)" stroke-width="1.5"></path><path d="M1586.89 53.99L1274.59 44.17" stroke="hsl(228.5, 77.2%, 51.5%)" stroke-width="1.5"></path><path d="M1549.3 206.8L1549.3 206.8" stroke="hsl(228.5, 77.2%, 51.5%)" stroke-width="1.5"></path><path d="M1549.3 206.8L1423.47 110.89" stroke="hsl(228.5, 77.2%, 51.5%)" stroke-width="1.5"></path><path d="M1549.3 206.8L1576.71 406.19" stroke="hsl(228.5, 77.2%, 51.5%)" stroke-width="1.5"></path><path d="M1549.3 206.8L1399.01 342.72" stroke="hsl(228.5, 77.2%, 51.5%)" stroke-width="1.5"></path><path d="M1576.71 406.19L1576.71 406.19" stroke="hsl(228.5, 77.2%, 51.5%)" stroke-width="1.5"></path><path d="M1576.71 406.19L1399.01 342.72" stroke="hsl(228.5, 77.2%, 51.5%)" stroke-width="1.5"></path><path d="M1576.71 406.19L1461.4 241.74" stroke="hsl(228.5, 77.2%, 51.5%)" stroke-width="1.5"></path><circle r="25" cx="667.69" cy="504.73" fill="url(&quot;#SvgjsRadialGradient1001&quot;)"></circle><circle r="25" cx="683.17" cy="653.41" fill="url(&quot;#SvgjsRadialGradient1001&quot;)"></circle><circle r="25" cx="816.34" cy="500.5" fill="url(&quot;#SvgjsRadialGradient1001&quot;)"></circle><circle r="25" cx="1153.56" cy="232.48" fill="url(&quot;#SvgjsRadialGradient1001&quot;)"></circle><circle r="25" cx="1283.73" cy="-75" fill="url(&quot;#SvgjsRadialGradient1001&quot;)"></circle><circle r="25" cx="1274.59" cy="44.17" fill="url(&quot;#SvgjsRadialGradient1001&quot;)"></circle><circle r="25" cx="1461.4" cy="241.74" fill="url(&quot;#SvgjsRadialGradient1001&quot;)"></circle><circle r="25" cx="1608.19" cy="-65.27" fill="url(&quot;#SvgjsRadialGradient1001&quot;)"></circle><circle r="5" cx="-50.99" cy="550.43" fill="#8b9ad9"></circle><circle r="5" cx="-48.53" cy="683.65" fill="#8b9ad9"></circle><circle r="5" cx="101.25" cy="527.97" fill="#8b9ad9"></circle><circle r="5" cx="46.05" cy="651.02" fill="#8b9ad9"></circle><circle r="5" cx="213.48" cy="527.94" fill="#8b9ad9"></circle><circle r="5" cx="233.36" cy="700.66" fill="#8b9ad9"></circle><circle r="5" cx="375.22" cy="522.85" fill="#8b9ad9"></circle><circle r="5" cx="377.54" cy="682.08" fill="#8b9ad9"></circle><circle r="5" cx="497.96" cy="694.72" fill="#8b9ad9"></circle><circle r="5" cx="838.47" cy="353.51" fill="#8b9ad9"></circle><circle r="5" cx="791.22" cy="661.9" fill="#8b9ad9"></circle><circle r="5" cx="940.82" cy="381.94" fill="#8b9ad9"></circle><circle r="5" cx="992.45" cy="506.06" fill="#8b9ad9"></circle><circle r="5" cx="948.99" cy="657.31" fill="#8b9ad9"></circle><circle r="5" cx="1149.32" cy="100.65" fill="#8b9ad9"></circle><circle r="5" cx="1113.89" cy="343.99" fill="#8b9ad9"></circle><circle r="5" cx="1135.23" cy="669.24" fill="#8b9ad9"></circle><circle r="5" cx="1304.81" cy="253.89" fill="#8b9ad9"></circle><circle r="5" cx="1271.11" cy="408.49" fill="#8b9ad9"></circle><circle r="5" cx="1244.83" cy="503.93" fill="#8b9ad9"></circle><circle r="5" cx="1239.1" cy="668.16" fill="#8b9ad9"></circle><circle r="5" cx="1424.33" cy="-42.63" fill="#8b9ad9"></circle><circle r="5" cx="1423.47" cy="110.89" fill="#8b9ad9"></circle><circle r="5" cx="1399.01" cy="342.72" fill="#8b9ad9"></circle><circle r="5" cx="1444.54" cy="509.11" fill="#8b9ad9"></circle><circle r="5" cx="1432.69" cy="662.12" fill="#8b9ad9"></circle><circle r="5" cx="1586.89" cy="53.99" fill="#8b9ad9"></circle><circle r="5" cx="1549.3" cy="206.8" fill="#8b9ad9"></circle><circle r="5" cx="1576.71" cy="406.19" fill="#8b9ad9"></circle></g><defs><mask id="SvgjsMask1000"><rect width="1440" height="560" fill="#ffffff"></rect></mask><radialGradient id="SvgjsRadialGradient1001"><stop stop-color="#ffffff" offset="0.1"></stop><stop stop-color="#1735b3" offset="0.2"></stop><stop stop-color="rgba(23, 53, 179, 0)" offset="1"></stop></radialGradient></defs></svg>