<svg id="visual" viewBox="0 0 900 600" width="900" height="600" xmlns="http://www.w3.org/2000/svg" xmlns:xlink="http://www.w3.org/1999/xlink" version="1.1"><path d="M0 97L13.7 90C27.3 83 54.7 69 82 69C109.3 69 136.7 83 163.8 86C191 89 218 81 245.2 77C272.3 73 299.7 73 327 68C354.3 63 381.7 53 409 56C436.3 59 463.7 75 491 79C518.3 83 545.7 75 573 69C600.3 63 627.7 59 654.8 60C682 61 709 67 736.2 67C763.3 67 790.7 61 818 63C845.3 65 872.7 75 886.3 80L900 85L900 0L886.3 0C872.7 0 845.3 0 818 0C790.7 0 763.3 0 736.2 0C709 0 682 0 654.8 0C627.7 0 600.3 0 573 0C545.7 0 518.3 0 491 0C463.7 0 436.3 0 409 0C381.7 0 354.3 0 327 0C299.7 0 272.3 0 245.2 0C218 0 191 0 163.8 0C136.7 0 109.3 0 82 0C54.7 0 27.3 0 13.7 0L0 0Z" fill="#6198ff"></path><path d="M0 181L13.7 174C27.3 167 54.7 153 82 155C109.3 157 136.7 175 163.8 188C191 201 218 209 245.2 197C272.3 185 299.7 153 327 145C354.3 137 381.7 153 409 162C436.3 171 463.7 173 491 178C518.3 183 545.7 191 573 199C600.3 207 627.7 215 654.8 216C682 217 709 211 736.2 207C763.3 203 790.7 201 818 202C845.3 203 872.7 207 886.3 209L900 211L900 83L886.3 78C872.7 73 845.3 63 818 61C790.7 59 763.3 65 736.2 65C709 65 682 59 654.8 58C627.7 57 600.3 61 573 67C545.7 73 518.3 81 491 77C463.7 73 436.3 57 409 54C381.7 51 354.3 61 327 66C299.7 71 272.3 71 245.2 75C218 79 191 87 163.8 84C136.7 81 109.3 67 82 67C54.7 67 27.3 81 13.7 88L0 95Z" fill="#3c80ff"></path><path d="M0 301L13.7 321C27.3 341 54.7 381 82 393C109.3 405 136.7 389 163.8 397C191 405 218 437 245.2 417C272.3 397 299.7 325 327 299C354.3 273 381.7 293 409 322C436.3 351 463.7 389 491 385C518.3 381 545.7 335 573 316C600.3 297 627.7 305 654.8 322C682 339 709 365 736.2 375C763.3 385 790.7 379 818 367C845.3 355 872.7 337 886.3 328L900 319L900 209L886.3 207C872.7 205 845.3 201 818 200C790.7 199 763.3 201 736.2 205C709 209 682 215 654.8 214C627.7 213 600.3 205 573 197C545.7 189 518.3 181 491 176C463.7 171 436.3 169 409 160C381.7 151 354.3 135 327 143C299.7 151 272.3 183 245.2 195C218 207 191 199 163.8 186C136.7 173 109.3 155 82 153C54.7 151 27.3 165 13.7 172L0 179Z" fill="#0066ff"></path><path d="M0 421L13.7 436C27.3 451 54.7 481 82 483C109.3 485 136.7 459 163.8 460C191 461 218 489 245.2 477C272.3 465 299.7 413 327 392C354.3 371 381.7 381 409 404C436.3 427 463.7 463 491 464C518.3 465 545.7 431 573 408C600.3 385 627.7 373 654.8 382C682 391 709 421 736.2 435C763.3 449 790.7 447 818 441C845.3 435 872.7 425 886.3 420L900 415L900 317L886.3 326C872.7 335 845.3 353 818 365C790.7 377 763.3 383 736.2 373C709 363 682 337 654.8 320C627.7 303 600.3 295 573 314C545.7 333 518.3 379 491 383C463.7 387 436.3 349 409 320C381.7 291 354.3 271 327 297C299.7 323 272.3 395 245.2 415C218 435 191 403 163.8 395C136.7 387 109.3 403 82 391C54.7 379 27.3 339 13.7 319L0 299Z" fill="#0059dd"></path><path d="M0 601L13.7 601C27.3 601 54.7 601 82 601C109.3 601 136.7 601 163.8 601C191 601 218 601 245.2 601C272.3 601 299.7 601 327 601C354.3 601 381.7 601 409 601C436.3 601 463.7 601 491 601C518.3 601 545.7 601 573 601C600.3 601 627.7 601 654.8 601C682 601 709 601 736.2 601C763.3 601 790.7 601 818 601C845.3 601 872.7 601 886.3 601L900 601L900 413L886.3 418C872.7 423 845.3 433 818 439C790.7 445 763.3 447 736.2 433C709 419 682 389 654.8 380C627.7 371 600.3 383 573 406C545.7 429 518.3 463 491 462C463.7 461 436.3 425 409 402C381.7 379 354.3 369 327 390C299.7 411 272.3 463 245.2 475C218 487 191 459 163.8 458C136.7 457 109.3 483 82 481C54.7 479 27.3 449 13.7 434L0 419Z" fill="#004cbb"></path></svg>